<svg width="131" height="129" viewBox="0 0 131 129" fill="none" xmlns="http://www.w3.org/2000/svg">
<path d="M65.5 21L66.3729 63.4442L112.577 51.0578L66.9123 64.9033L94.5954 99.6922L65.5 65.805L36.4046 99.6922L64.0877 64.9033L18.4227 51.0578L64.6271 63.4442L65.5 21Z" fill="url(#paint0_linear_157_1952)"/>
<path d="M92.5261 30.6071L69.0634 63.5132L109.338 83.0327L67.5311 67.9093L64.9793 109.641L62.6036 67.388L20.7514 73.66L61.0905 62.6697L37.7762 24.8145L65.0829 60.275L92.5261 30.6071Z" fill="url(#paint1_linear_157_1952)"/>
<path d="M100 65C100 83.7777 84.5538 99 65.5 99C46.4462 99 31 83.7777 31 65C31 46.2223 46.4462 31 65.5 31C84.5538 31 100 46.2223 100 65ZM32.2922 65C32.2922 83.0744 47.1598 97.7266 65.5 97.7266C83.8402 97.7266 98.7078 83.0744 98.7078 65C98.7078 46.9256 83.8402 32.2734 65.5 32.2734C47.1598 32.2734 32.2922 46.9256 32.2922 65Z" fill="url(#paint2_linear_157_1952)"/>
<defs>
<linearGradient id="paint0_linear_157_1952" x1="65.5" y1="21" x2="65.5" y2="108" gradientUnits="userSpaceOnUse">
<stop stop-color="#FFF99F"/>
<stop offset="1" stop-color="#FAF176"/>
</linearGradient>
<linearGradient id="paint1_linear_157_1952" x1="92.5261" y1="30.6071" x2="37.6225" y2="98.0949" gradientUnits="userSpaceOnUse">
<stop stop-color="#FFE8C1"/>
<stop offset="1" stop-color="#FFA100"/>
</linearGradient>
<linearGradient id="paint2_linear_157_1952" x1="65.5" y1="31" x2="65.5" y2="99" gradientUnits="userSpaceOnUse">
<stop stop-color="#FFE3B1"/>
<stop offset="1" stop-color="#FFA400"/>
</linearGradient>
</defs>
</svg>
