<svg width="743" height="34" viewBox="0 0 743 34" fill="none" xmlns="http://www.w3.org/2000/svg">
<path d="M3.96006 17.968V32.704C3.96006 33.216 3.86406 33.568 3.67206 33.76C3.51206 33.92 3.17606 34 2.66406 34H0.120063V4.96C0.120063 3.296 0.456063 2.128 1.12806 1.456C1.83206 0.751998 3.01606 0.399998 4.68006 0.399998H11.5921C13.2561 0.399998 14.4241 0.751998 15.0961 1.456C15.8001 2.128 16.1521 3.296 16.1521 4.96V32.704C16.1521 33.216 16.0561 33.568 15.8641 33.76C15.7041 33.92 15.3681 34 14.8561 34H12.3121V5.92C12.3121 4.992 12.1841 4.32 11.9281 3.904C11.7041 3.488 11.1761 3.248 10.3441 3.184H5.92806C5.06406 3.248 4.52006 3.488 4.29606 3.904C4.07206 4.32 3.96006 4.992 3.96006 5.92V15.184H10.3921V16.672C10.3921 17.184 10.3121 17.536 10.1521 17.728C10.0241 17.888 9.70406 17.968 9.19206 17.968H3.96006ZM29.9551 34C29.4431 34 29.1071 33.92 28.9471 33.76C28.8191 33.568 28.7551 33.216 28.7551 32.704V31.216H32.4511C33.4431 31.216 34.0671 31.008 34.3231 30.592C34.5791 30.176 34.7071 29.472 34.7071 28.48V20.704C34.7071 19.712 34.5791 19.008 34.3231 18.592C34.0671 18.176 33.4431 17.968 32.4511 17.968H26.8351V34H22.9951V1.696C22.9951 1.184 23.0751 0.848 23.2351 0.688C23.4271 0.495998 23.7791 0.399998 24.2911 0.399998H33.9871C35.6511 0.399998 36.8191 0.751998 37.4911 1.456C38.1951 2.128 38.5471 3.296 38.5471 4.96V11.968C38.5471 14.432 37.6671 15.872 35.9071 16.288V16.384C36.8351 16.64 37.5071 17.104 37.9231 17.776C38.3391 18.448 38.5471 19.424 38.5471 20.704V29.44C38.5471 31.104 38.1951 32.288 37.4911 32.992C36.8191 33.664 35.6511 34 33.9871 34H29.9551ZM26.8351 3.184V15.184H32.7391C33.5711 15.152 34.0991 14.928 34.3231 14.512C34.5791 14.064 34.7071 13.376 34.7071 12.448V5.92C34.7071 4.928 34.5791 4.224 34.3231 3.808C34.0671 3.392 33.4431 3.184 32.4511 3.184H26.8351ZM49.0516 28.48C49.0516 29.472 49.1796 30.176 49.4356 30.592C49.6916 31.008 50.3156 31.216 51.3076 31.216H55.6276C56.6196 31.216 57.2436 31.008 57.4996 30.592C57.7556 30.176 57.8836 29.472 57.8836 28.48V5.92C57.8836 4.928 57.7556 4.224 57.4996 3.808C57.2436 3.392 56.6196 3.184 55.6276 3.184H51.3076C50.3156 3.184 49.6916 3.392 49.4356 3.808C49.1796 4.224 49.0516 4.928 49.0516 5.92V28.48ZM45.2116 4.96C45.2116 3.296 45.5476 2.128 46.2196 1.456C46.9236 0.751998 48.1076 0.399998 49.7716 0.399998H57.1636C58.8276 0.399998 59.9956 0.751998 60.6676 1.456C61.3716 2.128 61.7236 3.296 61.7236 4.96V29.44C61.7236 31.104 61.3716 32.288 60.6676 32.992C59.9956 33.664 58.8276 34 57.1636 34H49.7716C48.1076 34 46.9236 33.664 46.2196 32.992C45.5476 32.288 45.2116 31.104 45.2116 29.44V4.96ZM85.2616 0.399998V29.44C85.2616 31.104 84.9096 32.288 84.2056 32.992C83.5336 33.664 82.3656 34 80.7016 34H73.0696C71.4056 34 70.2216 33.664 69.5176 32.992C68.8456 32.288 68.5096 31.104 68.5096 29.44V1.696C68.5096 1.184 68.5896 0.848 68.7496 0.688C68.9416 0.495998 69.2936 0.399998 69.8056 0.399998H72.3496V28.48C72.3496 29.472 72.4776 30.176 72.7336 30.592C72.9896 31.008 73.6136 31.216 74.6056 31.216H79.1656C80.1576 31.216 80.7816 31.008 81.0376 30.592C81.2936 30.176 81.4216 29.472 81.4216 28.48V1.696C81.4216 1.184 81.5016 0.848 81.6616 0.688C81.8536 0.495998 82.2056 0.399998 82.7176 0.399998H85.2616ZM107.831 0.399998V1.888C107.831 2.4 107.735 2.752 107.543 2.944C107.383 3.104 107.047 3.184 106.535 3.184H100.775V32.704C100.775 33.216 100.679 33.568 100.487 33.76C100.327 33.92 99.9906 34 99.4786 34H96.9346V3.184H89.9746V1.696C89.9746 1.184 90.0546 0.848 90.2146 0.688C90.4066 0.495998 90.7586 0.399998 91.2706 0.399998H107.831ZM191.273 17.968V31.216H200.441V32.704C200.441 33.216 200.345 33.568 200.153 33.76C199.993 33.92 199.657 34 199.145 34H187.433V1.696C187.433 1.184 187.513 0.848 187.673 0.688C187.865 0.495998 188.217 0.399998 188.729 0.399998H200.441V1.888C200.441 2.4 200.361 2.752 200.201 2.944C200.073 3.104 199.753 3.184 199.241 3.184H191.273V15.184H199.001V16.672C199.001 17.184 198.921 17.536 198.761 17.728C198.633 17.888 198.313 17.968 197.801 17.968H191.273ZM204.121 1.696C203.929 0.831998 204.249 0.399998 205.081 0.399998H207.721L212.857 24.256L213.529 29.584H213.817L214.489 24.256L219.049 1.696C219.177 1.184 219.353 0.848 219.577 0.688C219.801 0.495998 220.169 0.399998 220.681 0.399998H223.081L216.169 32.704C216.041 33.216 215.865 33.568 215.641 33.76C215.449 33.92 215.097 34 214.585 34H211.033L204.121 1.696ZM231.679 17.968V31.216H240.847V32.704C240.847 33.216 240.751 33.568 240.559 33.76C240.399 33.92 240.063 34 239.551 34H227.839V1.696C227.839 1.184 227.919 0.848 228.079 0.688C228.271 0.495998 228.623 0.399998 229.135 0.399998H240.847V1.888C240.847 2.4 240.767 2.752 240.607 2.944C240.479 3.104 240.159 3.184 239.647 3.184H231.679V15.184H239.407V16.672C239.407 17.184 239.327 17.536 239.167 17.728C239.039 17.888 238.719 17.968 238.207 17.968H231.679ZM259.263 20.944L261.903 28.096H262.191L261.423 20.8V1.696C261.423 1.184 261.503 0.848 261.663 0.688C261.855 0.495998 262.207 0.399998 262.719 0.399998H265.263V32.704C265.263 33.216 265.167 33.568 264.975 33.76C264.815 33.92 264.479 34 263.967 34H261.471L252.591 13.84L249.903 6.112H249.615L250.335 12.832V32.704C250.335 33.216 250.239 33.568 250.047 33.76C249.887 33.92 249.551 34 249.039 34H246.495V1.696C246.495 1.184 246.575 0.848 246.735 0.688C246.927 0.495998 247.279 0.399998 247.791 0.399998H250.383L259.263 20.944ZM287.831 0.399998V1.888C287.831 2.4 287.735 2.752 287.543 2.944C287.383 3.104 287.047 3.184 286.535 3.184H280.775V32.704C280.775 33.216 280.679 33.568 280.487 33.76C280.327 33.92 279.991 34 279.479 34H276.935V3.184H269.975V1.696C269.975 1.184 270.055 0.848 270.215 0.688C270.407 0.495998 270.759 0.399998 271.271 0.399998H287.831ZM380.105 29.44C380.105 31.104 379.753 32.288 379.049 32.992C378.377 33.664 377.209 34 375.545 34H369.689C368.761 34 368.089 33.776 367.673 33.328C367.289 32.848 367.001 32.144 366.809 31.216H374.009C375.001 31.216 375.625 31.008 375.881 30.592C376.137 30.176 376.265 29.472 376.265 28.48V20.704C376.265 19.712 376.121 19.008 375.833 18.592C375.577 18.176 374.905 17.968 373.817 17.968H371.369C369.705 17.968 368.521 17.632 367.817 16.96C367.145 16.256 366.809 15.072 366.809 13.408V4.96C366.809 3.296 367.145 2.128 367.817 1.456C368.521 0.751998 369.705 0.399998 371.369 0.399998H377.081C378.009 0.399998 378.665 0.639997 379.049 1.12C379.465 1.568 379.769 2.256 379.961 3.184H372.905C371.913 3.184 371.289 3.392 371.033 3.808C370.777 4.224 370.649 4.928 370.649 5.92V12.448C370.649 13.44 370.777 14.144 371.033 14.56C371.289 14.976 371.913 15.184 372.905 15.184H375.545C377.209 15.184 378.377 15.536 379.049 16.24C379.753 16.912 380.105 18.08 380.105 19.744V29.44ZM390.928 34C389.264 34 388.08 33.664 387.376 32.992C386.704 32.288 386.368 31.104 386.368 29.44V4.96C386.368 3.296 386.704 2.128 387.376 1.456C388.08 0.751998 389.264 0.399998 390.928 0.399998H397.12C398.048 0.399998 398.704 0.639997 399.088 1.12C399.504 1.568 399.808 2.256 400 3.184H392.464C391.472 3.184 390.848 3.392 390.592 3.808C390.336 4.224 390.208 4.928 390.208 5.92V28.48C390.208 29.472 390.336 30.176 390.592 30.592C390.848 31.008 391.472 31.216 392.464 31.216H400V32.704C400 33.216 399.92 33.568 399.76 33.76C399.632 33.92 399.312 34 398.8 34H390.928ZM422.159 0.399998V32.704C422.159 33.216 422.063 33.568 421.871 33.76C421.711 33.92 421.375 34 420.863 34H418.319V1.696C418.319 1.184 418.399 0.848 418.559 0.688C418.751 0.495998 419.103 0.399998 419.615 0.399998H422.159ZM409.007 17.968V32.704C409.007 33.216 408.911 33.568 408.719 33.76C408.559 33.92 408.223 34 407.711 34H405.167V1.696C405.167 1.184 405.247 0.848 405.407 0.688C405.599 0.495998 405.951 0.399998 406.463 0.399998H409.007V15.184H416.399V16.672C416.399 17.184 416.319 17.536 416.159 17.728C416.031 17.888 415.711 17.968 415.199 17.968H409.007ZM432.913 17.968V31.216H442.081V32.704C442.081 33.216 441.985 33.568 441.793 33.76C441.633 33.92 441.297 34 440.785 34H429.073V1.696C429.073 1.184 429.153 0.848 429.313 0.688C429.505 0.495998 429.857 0.399998 430.369 0.399998H442.081V1.888C442.081 2.4 442.001 2.752 441.841 2.944C441.713 3.104 441.393 3.184 440.881 3.184H432.913V15.184H440.641V16.672C440.641 17.184 440.561 17.536 440.401 17.728C440.273 17.888 439.953 17.968 439.441 17.968H432.913ZM454.689 34C454.177 34 453.841 33.92 453.681 33.76C453.553 33.568 453.489 33.216 453.489 32.704V31.216H457.665C458.657 31.216 459.281 31.008 459.537 30.592C459.793 30.176 459.921 29.472 459.921 28.48V5.92C459.921 4.928 459.793 4.224 459.537 3.808C459.281 3.392 458.657 3.184 457.665 3.184H451.569V34H447.729V1.696C447.729 1.184 447.809 0.848 447.969 0.688C448.161 0.495998 448.513 0.399998 449.025 0.399998H459.201C460.865 0.399998 462.033 0.751998 462.705 1.456C463.409 2.128 463.761 3.296 463.761 4.96V29.44C463.761 31.104 463.409 32.288 462.705 32.992C462.033 33.664 460.865 34 459.201 34H454.689ZM487.262 0.399998V29.44C487.262 31.104 486.91 32.288 486.206 32.992C485.534 33.664 484.366 34 482.702 34H475.07C473.406 34 472.222 33.664 471.518 32.992C470.846 32.288 470.51 31.104 470.51 29.44V1.696C470.51 1.184 470.59 0.848 470.75 0.688C470.942 0.495998 471.294 0.399998 471.806 0.399998H474.35V28.48C474.35 29.472 474.478 30.176 474.734 30.592C474.99 31.008 475.614 31.216 476.606 31.216H481.166C482.158 31.216 482.782 31.008 483.038 30.592C483.294 30.176 483.422 29.472 483.422 28.48V1.696C483.422 1.184 483.502 0.848 483.662 0.688C483.854 0.495998 484.206 0.399998 484.718 0.399998H487.262ZM494.183 34V1.696C494.183 1.184 494.263 0.848 494.423 0.688C494.615 0.495998 494.967 0.399998 495.479 0.399998H498.023V31.216H508.151V32.704C508.151 33.216 508.055 33.568 507.863 33.76C507.703 33.92 507.367 34 506.855 34H494.183ZM516.632 17.968V31.216H525.8V32.704C525.8 33.216 525.704 33.568 525.512 33.76C525.352 33.92 525.016 34 524.504 34H512.792V1.696C512.792 1.184 512.872 0.848 513.032 0.688C513.224 0.495998 513.576 0.399998 514.088 0.399998H525.8V1.888C525.8 2.4 525.72 2.752 525.56 2.944C525.432 3.104 525.112 3.184 524.6 3.184H516.632V15.184H524.36V16.672C524.36 17.184 524.28 17.536 524.12 17.728C523.992 17.888 523.672 17.968 523.16 17.968H516.632ZM601.537 34C599.873 34 598.689 33.664 597.985 32.992C597.313 32.288 596.977 31.104 596.977 29.44V4.96C596.977 3.296 597.313 2.128 597.985 1.456C598.689 0.751998 599.873 0.399998 601.537 0.399998H607.729C608.657 0.399998 609.313 0.639997 609.697 1.12C610.113 1.568 610.417 2.256 610.609 3.184H603.073C602.081 3.184 601.457 3.392 601.201 3.808C600.945 4.224 600.817 4.928 600.817 5.92V28.48C600.817 29.472 600.945 30.176 601.201 30.592C601.457 31.008 602.081 31.216 603.073 31.216H610.609V32.704C610.609 33.216 610.529 33.568 610.369 33.76C610.241 33.92 609.921 34 609.409 34H601.537ZM619.52 28.48C619.52 29.472 619.648 30.176 619.904 30.592C620.16 31.008 620.784 31.216 621.776 31.216H626.096C627.088 31.216 627.712 31.008 627.968 30.592C628.224 30.176 628.352 29.472 628.352 28.48V5.92C628.352 4.928 628.224 4.224 627.968 3.808C627.712 3.392 627.088 3.184 626.096 3.184H621.776C620.784 3.184 620.16 3.392 619.904 3.808C619.648 4.224 619.52 4.928 619.52 5.92V28.48ZM615.68 4.96C615.68 3.296 616.016 2.128 616.688 1.456C617.392 0.751998 618.576 0.399998 620.24 0.399998H627.632C629.296 0.399998 630.464 0.751998 631.136 1.456C631.84 2.128 632.192 3.296 632.192 4.96V29.44C632.192 31.104 631.84 32.288 631.136 32.992C630.464 33.664 629.296 34 627.632 34H620.24C618.576 34 617.392 33.664 616.688 32.992C616.016 32.288 615.68 31.104 615.68 29.44V4.96ZM651.794 20.944L654.434 28.096H654.722L653.954 20.8V1.696C653.954 1.184 654.034 0.848 654.194 0.688C654.386 0.495998 654.738 0.399998 655.25 0.399998H657.794V32.704C657.794 33.216 657.698 33.568 657.506 33.76C657.346 33.92 657.01 34 656.498 34H654.002L645.122 13.84L642.434 6.112H642.146L642.866 12.832V32.704C642.866 33.216 642.77 33.568 642.578 33.76C642.418 33.92 642.082 34 641.57 34H639.026V1.696C639.026 1.184 639.106 0.848 639.266 0.688C639.458 0.495998 639.81 0.399998 640.322 0.399998H642.914L651.794 20.944ZM680.362 0.399998V1.888C680.362 2.4 680.266 2.752 680.074 2.944C679.914 3.104 679.578 3.184 679.066 3.184H673.306V32.704C673.306 33.216 673.21 33.568 673.018 33.76C672.858 33.92 672.522 34 672.01 34H669.466V3.184H662.506V1.696C662.506 1.184 662.586 0.848 662.746 0.688C662.938 0.495998 663.29 0.399998 663.802 0.399998H680.362ZM688.804 17.968V32.704C688.804 33.216 688.708 33.568 688.516 33.76C688.356 33.92 688.02 34 687.508 34H684.964V4.96C684.964 3.296 685.3 2.128 685.972 1.456C686.676 0.751998 687.86 0.399998 689.524 0.399998H696.436C698.1 0.399998 699.268 0.751998 699.94 1.456C700.644 2.128 700.996 3.296 700.996 4.96V32.704C700.996 33.216 700.9 33.568 700.708 33.76C700.548 33.92 700.212 34 699.7 34H697.156V5.92C697.156 4.992 697.028 4.32 696.772 3.904C696.548 3.488 696.02 3.248 695.188 3.184H690.772C689.908 3.248 689.364 3.488 689.14 3.904C688.916 4.32 688.804 4.992 688.804 5.92V15.184H695.236V16.672C695.236 17.184 695.156 17.536 694.996 17.728C694.868 17.888 694.548 17.968 694.036 17.968H688.804ZM712.303 34C710.639 34 709.455 33.664 708.751 32.992C708.079 32.288 707.743 31.104 707.743 29.44V4.96C707.743 3.296 708.079 2.128 708.751 1.456C709.455 0.751998 710.639 0.399998 712.303 0.399998H718.495C719.423 0.399998 720.079 0.639997 720.463 1.12C720.879 1.568 721.183 2.256 721.375 3.184H713.839C712.847 3.184 712.223 3.392 711.967 3.808C711.711 4.224 711.583 4.928 711.583 5.92V28.48C711.583 29.472 711.711 30.176 711.967 30.592C712.223 31.008 712.847 31.216 713.839 31.216H721.375V32.704C721.375 33.216 721.295 33.568 721.135 33.76C721.007 33.92 720.687 34 720.175 34H712.303ZM742.19 0.399998V1.888C742.19 2.4 742.094 2.752 741.902 2.944C741.742 3.104 741.406 3.184 740.894 3.184H735.134V32.704C735.134 33.216 735.038 33.568 734.846 33.76C734.686 33.92 734.35 34 733.838 34H731.294V3.184H724.334V1.696C724.334 1.184 724.414 0.848 724.574 0.688C724.766 0.495998 725.118 0.399998 725.63 0.399998H742.19Z" fill="url(#paint0_radial_7_2807)"/>
<defs>
<radialGradient id="paint0_radial_7_2807" cx="0" cy="0" r="1" gradientUnits="userSpaceOnUse" gradientTransform="translate(344.5 78.5001) rotate(-86.5549) scale(149.771 0.179996)">
<stop offset="0.316829" stop-color="white"/>
<stop offset="1" stop-color="#FFE6C5"/>
</radialGradient>
</defs>
</svg>
