<svg width="237" height="28" viewBox="0 0 237 28" fill="none" xmlns="http://www.w3.org/2000/svg">
<path d="M20.28 23.2L19.4 23.48V0.999999H22.6V27H19.4L2.52 4.84L3.4 4.56V27H0.2V0.999999H3.4L20.28 23.2ZM31.8691 20.2V17.2H44.3491V20.2H31.8691ZM26.5891 27L36.4691 0.999999H39.8291L49.7891 27H46.3491L37.6691 3.48H38.6291L29.9491 27H26.5891ZM59.1569 27L49.5969 0.999999H53.0369L61.3169 23.8H60.3569L68.6369 0.999999H71.9969L62.5169 27H59.1569ZM86.3703 27.4C83.997 27.4 81.837 26.8533 79.8903 25.76C77.9703 24.64 76.437 23.08 75.2903 21.08C74.1436 19.08 73.5703 16.72 73.5703 14C73.5703 11.28 74.1436 8.92 75.2903 6.92C76.437 4.89333 77.9703 3.33333 79.8903 2.24C81.837 1.14667 83.997 0.599999 86.3703 0.599999C88.7436 0.599999 90.8903 1.14667 92.8103 2.24C94.757 3.33333 96.3036 4.89333 97.4503 6.92C98.597 8.92 99.1703 11.28 99.1703 14C99.1703 16.72 98.597 19.08 97.4503 21.08C96.3036 23.08 94.757 24.64 92.8103 25.76C90.8903 26.8533 88.7436 27.4 86.3703 27.4ZM86.3703 24.4C88.1836 24.4 89.8103 24.0133 91.2503 23.24C92.6903 22.44 93.837 21.2667 94.6903 19.72C95.5436 18.1733 95.9703 16.2667 95.9703 14C95.9703 11.7333 95.5436 9.84 94.6903 8.32C93.837 6.77333 92.6903 5.6 91.2503 4.8C89.8103 4 88.1836 3.6 86.3703 3.6C84.5836 3.6 82.957 4 81.4903 4.8C80.0503 5.6 78.9036 6.77333 78.0503 8.32C77.197 9.84 76.7703 11.7333 76.7703 14C76.7703 16.2667 77.197 18.1733 78.0503 19.72C78.9036 21.2667 80.0503 22.44 81.4903 23.24C82.957 24.0133 84.5836 24.4 86.3703 24.4ZM124.46 23.2L123.58 23.48V0.999999H126.78V27H123.58L106.7 4.84L107.58 4.56V27H104.38V0.999999H107.58L124.46 23.2Z" fill="white"/>
<path d="M148.209 25.08H146.929L158.769 0.999999H161.969V27H158.769V6.56L159.409 6.72L149.169 27H145.969L135.729 6.76L136.369 6.6V27H133.169V0.999999H136.369L148.209 25.08ZM171.564 15.56V24H186.804V27H168.364V0.999999H186.764V4H171.564V12.56H184.004V15.56H171.564ZM190.628 18.56H193.508C193.588 19.68 193.921 20.68 194.508 21.56C195.094 22.44 195.894 23.1333 196.908 23.64C197.948 24.1467 199.161 24.4 200.548 24.4C201.748 24.4 202.748 24.2267 203.548 23.88C204.374 23.5067 204.988 23 205.388 22.36C205.814 21.72 206.028 20.9733 206.028 20.12C206.028 19.24 205.814 18.5333 205.388 18C204.961 17.4667 204.348 17.0133 203.548 16.64C202.748 16.2667 201.801 15.9067 200.708 15.56C199.668 15.24 198.614 14.8667 197.548 14.44C196.481 14.0133 195.481 13.4933 194.548 12.88C193.641 12.2667 192.908 11.5333 192.348 10.68C191.788 9.8 191.508 8.74667 191.508 7.52C191.508 6.32 191.828 5.2 192.468 4.16C193.134 3.09333 194.094 2.24 195.348 1.6C196.628 0.933332 198.161 0.599999 199.948 0.599999C202.748 0.599999 204.841 1.36 206.228 2.88C207.614 4.4 208.281 6.41333 208.228 8.92H205.348C205.294 7.02667 204.761 5.66667 203.748 4.84C202.734 4.01333 201.414 3.6 199.788 3.6C198.428 3.6 197.241 3.92 196.228 4.56C195.214 5.17333 194.708 6.14666 194.708 7.48C194.708 8.06667 194.814 8.58667 195.028 9.04C195.268 9.46667 195.641 9.86667 196.148 10.24C196.681 10.6133 197.388 10.9867 198.268 11.36C199.174 11.7067 200.281 12.0933 201.588 12.52C202.441 12.7867 203.308 13.1067 204.188 13.48C205.094 13.8533 205.921 14.32 206.668 14.88C207.441 15.44 208.054 16.16 208.508 17.04C208.988 17.8933 209.228 18.9733 209.228 20.28C209.228 21.5333 208.921 22.7067 208.308 23.8C207.721 24.8667 206.788 25.7333 205.508 26.4C204.254 27.0667 202.628 27.4 200.628 27.4C198.921 27.4 197.454 27.1733 196.228 26.72C195.028 26.24 194.041 25.6267 193.268 24.88C192.494 24.1333 191.894 23.36 191.468 22.56C191.068 21.7333 190.801 20.96 190.668 20.24C190.534 19.52 190.521 18.96 190.628 18.56ZM216.948 12.52H233.428V15.52H216.948V12.52ZM233.228 0.999999H236.428V27H233.228V0.999999ZM214.028 0.999999H217.228V27H214.028V0.999999Z" fill="url(#paint0_linear_4_13)"/>
<defs>
<linearGradient id="paint0_linear_4_13" x1="160.292" y1="17.5" x2="253" y2="17.5" gradientUnits="userSpaceOnUse">
<stop stop-color="#FFCA92"/>
<stop offset="1" stop-color="#FD8300"/>
</linearGradient>
</defs>
</svg>
