<svg width="1217" height="39" viewBox="0 0 1217 39" fill="none" xmlns="http://www.w3.org/2000/svg">
<g filter="url(#filter0_d_7_2539)">
<path d="M10.084 26V3.68H4.576V1.232H18.292V3.68H12.784V26H10.084ZM21.3911 26V1.232H33.0911V3.608H24.0911V12.284H31.9031V14.66H24.0911V23.624H33.0911V26H21.3911ZM47.6933 25.856C47.1653 25.976 46.5173 26.072 45.7493 26.144C45.0053 26.24 44.2973 26.288 43.6253 26.288C41.4653 26.288 39.8813 25.964 38.8733 25.316C37.8893 24.668 37.2173 23.492 36.8573 21.788C36.5213 20.06 36.3533 17.336 36.3533 13.616C36.3533 9.92 36.5213 7.22 36.8573 5.516C37.2173 3.788 37.8893 2.6 38.8733 1.952C39.8813 1.28 41.4653 0.943999 43.6253 0.943999C44.2973 0.943999 45.0053 0.991999 45.7493 1.088C46.4933 1.184 47.1053 1.304 47.5853 1.448V3.644C46.2413 3.428 45.1133 3.32 44.2013 3.32C42.5453 3.32 41.3813 3.536 40.7093 3.968C40.0373 4.4 39.5933 5.288 39.3773 6.632C39.1853 7.976 39.0893 10.304 39.0893 13.616C39.0893 16.928 39.1853 19.256 39.3773 20.6C39.5933 21.944 40.0373 22.832 40.7093 23.264C41.3813 23.696 42.5453 23.912 44.2013 23.912C45.4013 23.912 46.5653 23.804 47.6933 23.588V25.856ZM62.6474 26V14.732H54.0434V26H51.3794V1.232H54.0434V12.284H62.6474V1.232H65.3114V26H62.6474ZM90.9335 1.232V15.236C90.9335 18.452 90.7895 20.792 90.5015 22.256C90.2135 23.72 89.5895 24.764 88.6295 25.388C87.6935 25.988 86.1575 26.288 84.0215 26.288C81.8855 26.288 80.3375 25.988 79.3775 25.388C78.4175 24.764 77.7935 23.72 77.5055 22.256C77.2175 20.768 77.0735 18.428 77.0735 15.236V1.232H79.7735V16.46C79.7735 18.74 79.8575 20.36 80.0255 21.32C80.1935 22.28 80.5535 22.952 81.1055 23.336C81.6815 23.72 82.6535 23.912 84.0215 23.912C85.3895 23.912 86.3495 23.72 86.9015 23.336C87.4775 22.952 87.8375 22.28 87.9815 21.32C88.1495 20.36 88.2335 18.74 88.2335 16.46V1.232H90.9335ZM107.05 26L98.5177 6.956H98.3737V26H95.7817V1.232H98.6257L107.014 19.952H107.158V1.232H109.75V26H107.05ZM114.801 26V1.232H117.501V23.552H125.493V26H114.801ZM128.442 26V1.232H140.142V3.608H131.142V12.284H138.954V14.66H131.142V23.624H140.142V26H128.442ZM155.86 26L154.132 19.124H146.536L144.844 26H142.144L148.624 1.232H152.152L158.632 26H155.86ZM150.424 4.508H150.244L147.184 16.748H153.484L150.424 4.508ZM167.069 26.288C164.837 26.288 162.785 26.132 160.913 25.82V23.48C161.753 23.6 162.677 23.708 163.685 23.804C164.693 23.876 165.545 23.912 166.241 23.912C167.201 23.912 167.957 23.852 168.509 23.732C169.085 23.588 169.553 23.348 169.913 23.012C170.249 22.7 170.465 22.244 170.561 21.644C170.681 21.044 170.741 20.24 170.741 19.232C170.741 17.912 170.693 16.988 170.597 16.46C170.501 15.932 170.273 15.56 169.913 15.344C169.577 15.104 168.965 14.912 168.077 14.768L163.901 14.12C162.893 13.952 162.137 13.616 161.633 13.112C161.129 12.584 160.793 11.912 160.625 11.096C160.481 10.28 160.409 9.188 160.409 7.82C160.409 5.324 160.937 3.56 161.993 2.528C163.049 1.472 164.741 0.943999 167.069 0.943999C169.301 0.943999 171.125 1.136 172.541 1.52V3.752C170.933 3.464 169.313 3.32 167.681 3.32C166.649 3.32 165.833 3.416 165.233 3.608C164.633 3.776 164.177 4.04 163.865 4.4C163.553 4.76 163.349 5.204 163.253 5.732C163.157 6.26 163.109 6.932 163.109 7.748C163.109 8.852 163.157 9.656 163.253 10.16C163.349 10.64 163.541 10.976 163.829 11.168C164.117 11.36 164.597 11.516 165.269 11.636L169.301 12.284C170.309 12.452 171.101 12.704 171.677 13.04C172.253 13.376 172.697 13.952 173.009 14.768C173.297 15.464 173.441 16.844 173.441 18.908C173.441 20.756 173.237 22.208 172.829 23.264C172.445 24.32 171.785 25.088 170.849 25.568C169.937 26.048 168.677 26.288 167.069 26.288ZM188.718 26V14.732H180.114V26H177.45V1.232H180.114V12.284H188.718V1.232H191.382V26H188.718ZM196.434 26V1.232H208.134V3.608H199.134V12.284H206.946V14.66H199.134V23.624H208.134V26H196.434ZM212.008 1.232H217.912C220.312 1.232 222.016 1.544 223.024 2.168C224.056 2.792 224.716 3.92 225.004 5.552C225.316 7.16 225.472 9.848 225.472 13.616C225.472 17.384 225.316 20.084 225.004 21.716C224.716 23.324 224.056 24.44 223.024 25.064C222.016 25.688 220.312 26 217.912 26H212.008V1.232ZM217.804 23.624C219.46 23.624 220.588 23.456 221.188 23.12C221.812 22.76 222.232 21.932 222.448 20.636C222.664 19.34 222.772 17 222.772 13.616C222.772 10.256 222.664 7.928 222.448 6.632C222.232 5.312 221.812 4.484 221.188 4.148C220.564 3.788 219.436 3.608 217.804 3.608H214.672V23.624H217.804ZM229.399 10.88V7.64H232.351V10.88H229.399ZM229.399 26V22.76H232.351V26H229.399ZM247.389 26V3.68H241.881V1.232H255.597V3.68H250.089V26H247.389ZM269.964 26V14.732H261.36V26H258.696V1.232H261.36V12.284H269.964V1.232H272.628V26H269.964ZM277.68 26V1.232H289.38V3.608H280.38V12.284H288.192V14.66H280.38V23.624H289.38V26H277.68ZM313.824 1.232V15.236C313.824 18.452 313.68 20.792 313.392 22.256C313.104 23.72 312.48 24.764 311.52 25.388C310.584 25.988 309.048 26.288 306.912 26.288C304.776 26.288 303.228 25.988 302.268 25.388C301.308 24.764 300.684 23.72 300.396 22.256C300.108 20.768 299.964 18.428 299.964 15.236V1.232H302.664V16.46C302.664 18.74 302.748 20.36 302.916 21.32C303.084 22.28 303.444 22.952 303.996 23.336C304.572 23.72 305.544 23.912 306.912 23.912C308.28 23.912 309.24 23.72 309.792 23.336C310.368 22.952 310.728 22.28 310.872 21.32C311.04 20.36 311.124 18.74 311.124 16.46V1.232H313.824ZM318.672 26V1.232H321.372V23.552H329.364V26H318.672ZM335.877 26V3.68H330.369V1.232H344.085V3.68H338.577V26H335.877ZM347.292 26V1.232H349.992V26H347.292ZM371.366 26V5.948H371.222L365.714 26H363.266L357.794 5.948H357.65V26H355.094V1.232H358.982L364.454 21.356H364.67L370.178 1.232H373.994V26H371.366ZM390.88 26L389.152 19.124H381.556L379.864 26H377.164L383.644 1.232H387.172L393.652 26H390.88ZM385.444 4.508H385.264L382.204 16.748H388.504L385.444 4.508ZM398.525 26V3.68H393.017V1.232H406.733V3.68H401.225V26H398.525ZM409.833 26V1.232H421.533V3.608H412.533V12.284H420.345V14.66H412.533V23.624H421.533V26H409.833ZM435.897 26V3.68H430.389V1.232H444.105V3.68H438.597V26H435.897ZM447.204 26V1.232H458.904V3.608H449.904V12.284H457.716V14.66H449.904V23.624H458.904V26H447.204ZM473.506 25.856C472.978 25.976 472.33 26.072 471.562 26.144C470.818 26.24 470.11 26.288 469.438 26.288C467.278 26.288 465.694 25.964 464.686 25.316C463.702 24.668 463.03 23.492 462.67 21.788C462.334 20.06 462.166 17.336 462.166 13.616C462.166 9.92 462.334 7.22 462.67 5.516C463.03 3.788 463.702 2.6 464.686 1.952C465.694 1.28 467.278 0.943999 469.438 0.943999C470.11 0.943999 470.818 0.991999 471.562 1.088C472.306 1.184 472.918 1.304 473.398 1.448V3.644C472.054 3.428 470.926 3.32 470.014 3.32C468.358 3.32 467.194 3.536 466.522 3.968C465.85 4.4 465.406 5.288 465.19 6.632C464.998 7.976 464.902 10.304 464.902 13.616C464.902 16.928 464.998 19.256 465.19 20.6C465.406 21.944 465.85 22.832 466.522 23.264C467.194 23.696 468.358 23.912 470.014 23.912C471.214 23.912 472.378 23.804 473.506 23.588V25.856ZM488.46 26V14.732H479.856V26H477.192V1.232H479.856V12.284H488.46V1.232H491.124V26H488.46ZM503.102 26V1.232H514.802V3.608H505.802V12.284H513.614V14.66H505.802V23.624H514.802V26H503.102ZM522.708 26L516.516 1.232H519.324L524.4 22.436H524.616L529.692 1.232H532.392L526.236 26H522.708ZM535.305 26V1.232H547.005V3.608H538.005V12.284H545.817V14.66H538.005V23.624H547.005V26H535.305ZM562.147 26L553.615 6.956H553.471V26H550.879V1.232H553.723L562.111 19.952H562.255V1.232H564.847V26H562.147ZM573.463 26V3.68H567.955V1.232H581.671V3.68H576.163V26H573.463ZM594.732 26V3.68H589.224V1.232H602.94V3.68H597.432V26H594.732ZM612.492 26.288C610.14 26.288 608.46 25.964 607.452 25.316C606.444 24.668 605.796 23.528 605.508 21.896C605.22 20.24 605.076 17.48 605.076 13.616C605.076 9.752 605.22 7.004 605.508 5.372C605.796 3.716 606.444 2.564 607.452 1.916C608.46 1.268 610.14 0.943999 612.492 0.943999C614.844 0.943999 616.524 1.268 617.532 1.916C618.54 2.564 619.188 3.716 619.476 5.372C619.764 7.004 619.908 9.752 619.908 13.616C619.908 17.48 619.764 20.24 619.476 21.896C619.188 23.528 618.54 24.668 617.532 25.316C616.524 25.964 614.844 26.288 612.492 26.288ZM612.492 23.912C614.028 23.912 615.096 23.732 615.696 23.372C616.296 23.012 616.692 22.16 616.884 20.816C617.076 19.472 617.172 17.072 617.172 13.616C617.172 10.16 617.076 7.76 616.884 6.416C616.692 5.072 616.296 4.22 615.696 3.86C615.096 3.5 614.028 3.32 612.492 3.32C610.956 3.32 609.888 3.5 609.288 3.86C608.688 4.22 608.292 5.072 608.1 6.416C607.908 7.76 607.812 10.16 607.812 13.616C607.812 17.072 607.908 19.472 608.1 20.816C608.292 22.16 608.688 23.012 609.288 23.372C609.888 23.732 610.956 23.912 612.492 23.912ZM631.247 26V1.232H642.947V3.608H633.947V12.284H641.759V14.66H633.947V23.624H642.947V26H631.247ZM658.089 26L653.049 15.848H652.833L647.829 26H644.913L651.285 13.544L644.985 1.232H648.009L652.977 11.204H653.157L658.125 1.232H661.041L654.741 13.472L661.113 26H658.089ZM664.258 1.232H671.602C673.282 1.232 674.542 1.568 675.382 2.24C676.222 2.888 676.762 3.752 677.002 4.832C677.266 5.888 677.398 7.28 677.398 9.008C677.398 10.688 677.266 12.068 677.002 13.148C676.762 14.204 676.222 15.068 675.382 15.74C674.542 16.412 673.282 16.748 671.602 16.748H666.958V26H664.258V1.232ZM670.882 14.408C672.034 14.408 672.874 14.216 673.402 13.832C673.954 13.448 674.302 12.896 674.446 12.176C674.614 11.432 674.698 10.376 674.698 9.008C674.698 7.616 674.614 6.56 674.446 5.84C674.302 5.096 673.966 4.544 673.438 4.184C672.91 3.8 672.07 3.608 670.918 3.608H666.958V14.408H670.882ZM680.993 26V1.232H683.693V23.552H691.685V26H680.993ZM701.437 26.288C699.085 26.288 697.405 25.964 696.397 25.316C695.389 24.668 694.741 23.528 694.453 21.896C694.165 20.24 694.021 17.48 694.021 13.616C694.021 9.752 694.165 7.004 694.453 5.372C694.741 3.716 695.389 2.564 696.397 1.916C697.405 1.268 699.085 0.943999 701.437 0.943999C703.789 0.943999 705.469 1.268 706.477 1.916C707.485 2.564 708.133 3.716 708.421 5.372C708.709 7.004 708.853 9.752 708.853 13.616C708.853 17.48 708.709 20.24 708.421 21.896C708.133 23.528 707.485 24.668 706.477 25.316C705.469 25.964 703.789 26.288 701.437 26.288ZM701.437 23.912C702.973 23.912 704.041 23.732 704.641 23.372C705.241 23.012 705.637 22.16 705.829 20.816C706.021 19.472 706.117 17.072 706.117 13.616C706.117 10.16 706.021 7.76 705.829 6.416C705.637 5.072 705.241 4.22 704.641 3.86C704.041 3.5 702.973 3.32 701.437 3.32C699.901 3.32 698.833 3.5 698.233 3.86C697.633 4.22 697.237 5.072 697.045 6.416C696.853 7.76 696.757 10.16 696.757 13.616C696.757 17.072 696.853 19.472 697.045 20.816C697.237 22.16 697.633 23.012 698.233 23.372C698.833 23.732 699.901 23.912 701.437 23.912ZM724.21 26L721.114 16.028H720.61H715.966V26H713.266V1.232H720.826C722.53 1.232 723.802 1.544 724.642 2.168C725.482 2.792 726.022 3.62 726.262 4.652C726.526 5.684 726.658 7.016 726.658 8.648C726.658 10.448 726.466 11.936 726.082 13.112C725.722 14.264 724.93 15.08 723.706 15.56L727.054 26H724.21ZM720.142 13.688C721.27 13.688 722.11 13.508 722.662 13.148C723.214 12.788 723.562 12.272 723.706 11.6C723.874 10.904 723.958 9.92 723.958 8.648C723.958 7.352 723.874 6.368 723.706 5.696C723.562 5.024 723.226 4.508 722.698 4.148C722.17 3.788 721.33 3.608 720.178 3.608H715.966V13.688H720.142ZM731.02 26V1.232H742.72V3.608H733.72V12.284H741.532V14.66H733.72V23.624H742.72V26H731.02ZM745.37 28.952C745.922 28.952 746.33 28.88 746.594 28.736C746.858 28.616 747.026 28.4 747.098 28.088C747.194 27.776 747.242 27.284 747.242 26.612V26H746.054V22.76H749.042V25.712C749.042 26.984 748.946 27.92 748.754 28.52C748.586 29.144 748.238 29.576 747.71 29.816C747.206 30.08 746.426 30.212 745.37 30.212V28.952ZM760.624 26V1.232H763.324V26H760.624ZM779.694 26L771.162 6.956H771.018V26H768.426V1.232H771.27L779.658 19.952H779.802V1.232H782.394V26H779.694ZM798.714 26L790.182 6.956H790.038V26H787.446V1.232H790.29L798.678 19.952H798.822V1.232H801.414V26H798.714ZM813.269 26.288C810.917 26.288 809.237 25.964 808.229 25.316C807.221 24.668 806.573 23.528 806.285 21.896C805.997 20.24 805.853 17.48 805.853 13.616C805.853 9.752 805.997 7.004 806.285 5.372C806.573 3.716 807.221 2.564 808.229 1.916C809.237 1.268 810.917 0.943999 813.269 0.943999C815.621 0.943999 817.301 1.268 818.309 1.916C819.317 2.564 819.965 3.716 820.253 5.372C820.541 7.004 820.685 9.752 820.685 13.616C820.685 17.48 820.541 20.24 820.253 21.896C819.965 23.528 819.317 24.668 818.309 25.316C817.301 25.964 815.621 26.288 813.269 26.288ZM813.269 23.912C814.805 23.912 815.873 23.732 816.473 23.372C817.073 23.012 817.469 22.16 817.661 20.816C817.853 19.472 817.949 17.072 817.949 13.616C817.949 10.16 817.853 7.76 817.661 6.416C817.469 5.072 817.073 4.22 816.473 3.86C815.873 3.5 814.805 3.32 813.269 3.32C811.733 3.32 810.665 3.5 810.065 3.86C809.465 4.22 809.069 5.072 808.877 6.416C808.685 7.76 808.589 10.16 808.589 13.616C808.589 17.072 808.685 19.472 808.877 20.816C809.069 22.16 809.465 23.012 810.065 23.372C810.665 23.732 811.733 23.912 813.269 23.912ZM828.779 26L822.587 1.232H825.395L830.471 22.436H830.687L835.763 1.232H838.463L832.307 26H828.779ZM851.884 26L850.156 19.124H842.56L840.868 26H838.168L844.648 1.232H848.176L854.656 26H851.884ZM846.448 4.508H846.268L843.208 16.748H849.508L846.448 4.508ZM859.529 26V3.68H854.021V1.232H867.737V3.68H862.229V26H859.529ZM870.836 26V1.232H882.536V3.608H873.536V12.284H881.348V14.66H873.536V23.624H882.536V26H870.836ZM885.187 28.952C885.739 28.952 886.147 28.88 886.411 28.736C886.675 28.616 886.843 28.4 886.915 28.088C887.011 27.776 887.059 27.284 887.059 26.612V26H885.871V22.76H888.859V25.712C888.859 26.984 888.763 27.92 888.571 28.52C888.403 29.144 888.055 29.576 887.527 29.816C887.023 30.08 886.243 30.212 885.187 30.212V28.952ZM912.177 26L910.449 19.124H902.853L901.161 26H898.461L904.941 1.232H908.469L914.949 26H912.177ZM906.741 4.508H906.561L903.501 16.748H909.801L906.741 4.508ZM929.39 26L920.858 6.956H920.714V26H918.122V1.232H920.966L929.354 19.952H929.498V1.232H932.09V26H929.39ZM937.141 1.232H943.045C945.445 1.232 947.149 1.544 948.157 2.168C949.189 2.792 949.849 3.92 950.137 5.552C950.449 7.16 950.605 9.848 950.605 13.616C950.605 17.384 950.449 20.084 950.137 21.716C949.849 23.324 949.189 24.44 948.157 25.064C947.149 25.688 945.445 26 943.045 26H937.141V1.232ZM942.937 23.624C944.593 23.624 945.721 23.456 946.321 23.12C946.945 22.76 947.365 21.932 947.581 20.636C947.797 19.34 947.905 17 947.905 13.616C947.905 10.256 947.797 7.928 947.581 6.632C947.365 5.312 946.945 4.484 946.321 4.148C945.697 3.788 944.569 3.608 942.937 3.608H939.805V23.624H942.937ZM967.541 26.288C965.309 26.288 963.257 26.132 961.385 25.82V23.48C962.225 23.6 963.149 23.708 964.157 23.804C965.165 23.876 966.017 23.912 966.713 23.912C967.673 23.912 968.429 23.852 968.981 23.732C969.557 23.588 970.025 23.348 970.385 23.012C970.721 22.7 970.937 22.244 971.033 21.644C971.153 21.044 971.213 20.24 971.213 19.232C971.213 17.912 971.165 16.988 971.069 16.46C970.973 15.932 970.745 15.56 970.385 15.344C970.049 15.104 969.437 14.912 968.549 14.768L964.373 14.12C963.365 13.952 962.609 13.616 962.105 13.112C961.601 12.584 961.265 11.912 961.097 11.096C960.953 10.28 960.881 9.188 960.881 7.82C960.881 5.324 961.409 3.56 962.465 2.528C963.521 1.472 965.213 0.943999 967.541 0.943999C969.773 0.943999 971.597 1.136 973.013 1.52V3.752C971.405 3.464 969.785 3.32 968.153 3.32C967.121 3.32 966.305 3.416 965.705 3.608C965.105 3.776 964.649 4.04 964.337 4.4C964.025 4.76 963.821 5.204 963.725 5.732C963.629 6.26 963.581 6.932 963.581 7.748C963.581 8.852 963.629 9.656 963.725 10.16C963.821 10.64 964.013 10.976 964.301 11.168C964.589 11.36 965.069 11.516 965.741 11.636L969.773 12.284C970.781 12.452 971.573 12.704 972.149 13.04C972.725 13.376 973.169 13.952 973.481 14.768C973.769 15.464 973.913 16.844 973.913 18.908C973.913 20.756 973.709 22.208 973.301 23.264C972.917 24.32 972.257 25.088 971.321 25.568C970.409 26.048 969.149 26.288 967.541 26.288ZM989.19 26V14.732H980.586V26H977.922V1.232H980.586V12.284H989.19V1.232H991.854V26H989.19ZM1008.75 26L1007.02 19.124H999.427L997.735 26H995.035L1001.51 1.232H1005.04L1011.52 26H1008.75ZM1003.31 4.508H1003.13L1000.07 16.748H1006.37L1003.31 4.508ZM1014.7 1.232H1022.04C1023.72 1.232 1024.98 1.568 1025.82 2.24C1026.66 2.888 1027.2 3.752 1027.44 4.832C1027.7 5.888 1027.84 7.28 1027.84 9.008C1027.84 10.688 1027.7 12.068 1027.44 13.148C1027.2 14.204 1026.66 15.068 1025.82 15.74C1024.98 16.412 1023.72 16.748 1022.04 16.748H1017.4V26H1014.7V1.232ZM1021.32 14.408C1022.47 14.408 1023.31 14.216 1023.84 13.832C1024.39 13.448 1024.74 12.896 1024.88 12.176C1025.05 11.432 1025.14 10.376 1025.14 9.008C1025.14 7.616 1025.05 6.56 1024.88 5.84C1024.74 5.096 1024.4 4.544 1023.88 4.184C1023.35 3.8 1022.51 3.608 1021.36 3.608H1017.4V14.408H1021.32ZM1031.43 26V1.232H1043.13V3.608H1034.13V12.284H1041.94V14.66H1034.13V23.624H1043.13V26H1031.43ZM1057.49 26V3.68H1051.99V1.232H1065.7V3.68H1060.19V26H1057.49ZM1080.07 26V14.732H1071.47V26H1068.8V1.232H1071.47V12.284H1080.07V1.232H1082.73V26H1080.07ZM1087.79 26V1.232H1099.49V3.608H1090.49V12.284H1098.3V14.66H1090.49V23.624H1099.49V26H1087.79ZM1110.29 26V1.232H1121.45V3.608H1112.99V12.86H1120.51V15.2H1112.99V26H1110.29ZM1138.62 1.232V15.236C1138.62 18.452 1138.48 20.792 1138.19 22.256C1137.9 23.72 1137.28 24.764 1136.32 25.388C1135.38 25.988 1133.85 26.288 1131.71 26.288C1129.58 26.288 1128.03 25.988 1127.07 25.388C1126.11 24.764 1125.48 23.72 1125.2 22.256C1124.91 20.768 1124.76 18.428 1124.76 15.236V1.232H1127.46V16.46C1127.46 18.74 1127.55 20.36 1127.72 21.32C1127.88 22.28 1128.24 22.952 1128.8 23.336C1129.37 23.72 1130.34 23.912 1131.71 23.912C1133.08 23.912 1134.04 23.72 1134.59 23.336C1135.17 22.952 1135.53 22.28 1135.67 21.32C1135.84 20.36 1135.92 18.74 1135.92 16.46V1.232H1138.62ZM1147.04 26V3.68H1141.53V1.232H1155.25V3.68H1149.74V26H1147.04ZM1171.99 1.232V15.236C1171.99 18.452 1171.84 20.792 1171.56 22.256C1171.27 23.72 1170.64 24.764 1169.68 25.388C1168.75 25.988 1167.21 26.288 1165.08 26.288C1162.94 26.288 1161.39 25.988 1160.43 25.388C1159.47 24.764 1158.85 23.72 1158.56 22.256C1158.27 20.768 1158.13 18.428 1158.13 15.236V1.232H1160.83V16.46C1160.83 18.74 1160.91 20.36 1161.08 21.32C1161.25 22.28 1161.61 22.952 1162.16 23.336C1162.74 23.72 1163.71 23.912 1165.08 23.912C1166.44 23.912 1167.4 23.72 1167.96 23.336C1168.53 22.952 1168.89 22.28 1169.04 21.32C1169.2 20.36 1169.29 18.74 1169.29 16.46V1.232H1171.99ZM1187.78 26L1184.68 16.028H1184.18H1179.54V26H1176.84V1.232H1184.4C1186.1 1.232 1187.37 1.544 1188.21 2.168C1189.05 2.792 1189.59 3.62 1189.83 4.652C1190.1 5.684 1190.23 7.016 1190.23 8.648C1190.23 10.448 1190.04 11.936 1189.65 13.112C1189.29 14.264 1188.5 15.08 1187.28 15.56L1190.62 26H1187.78ZM1183.71 13.688C1184.84 13.688 1185.68 13.508 1186.23 13.148C1186.78 12.788 1187.13 12.272 1187.28 11.6C1187.44 10.904 1187.53 9.92 1187.53 8.648C1187.53 7.352 1187.44 6.368 1187.28 5.696C1187.13 5.024 1186.8 4.508 1186.27 4.148C1185.74 3.788 1184.9 3.608 1183.75 3.608H1179.54V13.688H1183.71ZM1194.59 26V1.232H1206.29V3.608H1197.29V12.284H1205.1V14.66H1197.29V23.624H1206.29V26H1194.59ZM1210.52 19.124C1210.48 17.588 1210.4 15.944 1210.31 14.192C1210.09 9.104 1209.98 6.092 1209.98 5.156V1.232H1212.94V5.156C1212.94 6.284 1212.84 8.936 1212.65 13.112L1212.43 19.124H1210.52ZM1209.98 26V22.76H1212.94V26H1209.98Z" fill="white"/>
</g>
<defs>
<filter id="filter0_d_7_2539" x="0.576004" y="0.944" width="1216.36" height="37.268" filterUnits="userSpaceOnUse" color-interpolation-filters="sRGB">
<feFlood flood-opacity="0" result="BackgroundImageFix"/>
<feColorMatrix in="SourceAlpha" type="matrix" values="0 0 0 0 0 0 0 0 0 0 0 0 0 0 0 0 0 0 127 0" result="hardAlpha"/>
<feOffset dy="4"/>
<feGaussianBlur stdDeviation="2"/>
<feComposite in2="hardAlpha" operator="out"/>
<feColorMatrix type="matrix" values="0 0 0 0 0 0 0 0 0 0 0 0 0 0 0 0 0 0 0.25 0"/>
<feBlend mode="normal" in2="BackgroundImageFix" result="effect1_dropShadow_7_2539"/>
<feBlend mode="normal" in="SourceGraphic" in2="effect1_dropShadow_7_2539" result="shape"/>
</filter>
</defs>
</svg>
