<svg width="1067" height="158" viewBox="0 0 1067 158" fill="none" xmlns="http://www.w3.org/2000/svg">
<path d="M0.151367 62V1.61914H5.64453V62H0.151367ZM61.543 0.520508C64.3262 0.520508 66.9189 0.666992 69.3213 0.959961C71.7236 1.22363 74.0234 1.61914 76.2207 2.14648C78.418 2.64453 80.5566 3.25977 82.6367 3.99219C84.7168 4.69531 86.8115 5.48633 88.9209 6.36523V13.0449C87.251 11.9902 85.4639 10.9941 83.5596 10.0566C81.6846 9.11914 79.6484 8.29883 77.4512 7.5957C75.2832 6.89258 72.9395 6.33594 70.4199 5.92578C67.9297 5.51563 65.249 5.31055 62.3779 5.31055C56.5186 5.31055 51.4062 5.92578 47.041 7.15625C42.6758 8.38672 39.043 10.1445 36.1426 12.4297C33.2422 14.7148 31.0596 17.498 29.5947 20.7793C28.1592 24.0605 27.4414 27.752 27.4414 31.8535C27.4414 35.6914 28.1445 39.2363 29.5508 42.4883C30.9863 45.7109 33.1396 48.4941 36.0107 50.8379C38.9111 53.1816 42.5293 55.0127 46.8652 56.3311C51.2012 57.6494 56.2842 58.3086 62.1143 58.3086C64.3994 58.3086 66.6553 58.2207 68.8818 58.0449C71.1377 57.8691 73.2617 57.6494 75.2539 57.3857C77.2461 57.0928 79.0625 56.7852 80.7031 56.4629C82.3438 56.1113 83.7354 55.7598 84.8779 55.4082V37.083H60.3125V31.9414H90.3711V58.4844C88.2031 59.2461 86.0059 59.9199 83.7793 60.5059C81.582 61.0918 79.2969 61.5898 76.9238 62C74.5801 62.3809 72.1338 62.6738 69.585 62.8789C67.0654 63.084 64.4141 63.1865 61.6309 63.1865C55.9473 63.1865 50.6738 62.5566 45.8105 61.2969C40.9473 60.0078 36.7285 58.0742 33.1543 55.4961C29.6094 52.8887 26.8262 49.6221 24.8047 45.6963C22.7832 41.7705 21.7725 37.1562 21.7725 31.8535C21.7725 28.3086 22.2412 25.0859 23.1787 22.1855C24.1162 19.2559 25.4346 16.6338 27.1338 14.3193C28.8623 11.9756 30.9277 9.93945 33.3301 8.21094C35.7617 6.48242 38.4424 5.06152 41.3721 3.94824C44.3311 2.80566 47.5098 1.95605 50.9082 1.39941C54.3066 0.813477 57.8516 0.520508 61.543 0.520508ZM165.869 62L113.398 8.82617V62H107.905V1.61914H113.97L166.44 54.9688V1.61914H171.846V62H165.869ZM192.192 62V1.61914H197.686V62H192.192ZM242.51 6.62891V62H237.061V6.62891H209.595V1.61914H269.976V6.62891H242.51ZM281.841 62V1.61914H332.158V6.76074H287.817V27.5469H329.917V32.6445H287.817V56.8584H332.817V62H281.841ZM0.151367 156V95.6191H5.64453V156H0.151367ZM61.543 94.5205C64.3262 94.5205 66.9189 94.667 69.3213 94.96C71.7236 95.2236 74.0234 95.6191 76.2207 96.1465C78.418 96.6445 80.5566 97.2598 82.6367 97.9922C84.7168 98.6953 86.8115 99.4863 88.9209 100.365V107.045C87.251 105.99 85.4639 104.994 83.5596 104.057C81.6846 103.119 79.6484 102.299 77.4512 101.596C75.2832 100.893 72.9395 100.336 70.4199 99.9258C67.9297 99.5156 65.249 99.3105 62.3779 99.3105C56.5186 99.3105 51.4062 99.9258 47.041 101.156C42.6758 102.387 39.043 104.145 36.1426 106.43C33.2422 108.715 31.0596 111.498 29.5947 114.779C28.1592 118.061 27.4414 121.752 27.4414 125.854C27.4414 129.691 28.1445 133.236 29.5508 136.488C30.9863 139.711 33.1396 142.494 36.0107 144.838C38.9111 147.182 42.5293 149.013 46.8652 150.331C51.2012 151.649 56.2842 152.309 62.1143 152.309C64.3994 152.309 66.6553 152.221 68.8818 152.045C71.1377 151.869 73.2617 151.649 75.2539 151.386C77.2461 151.093 79.0625 150.785 80.7031 150.463C82.3438 150.111 83.7354 149.76 84.8779 149.408V131.083H60.3125V125.941H90.3711V152.484C88.2031 153.246 86.0059 153.92 83.7793 154.506C81.582 155.092 79.2969 155.59 76.9238 156C74.5801 156.381 72.1338 156.674 69.585 156.879C67.0654 157.084 64.4141 157.187 61.6309 157.187C55.9473 157.187 50.6738 156.557 45.8105 155.297C40.9473 154.008 36.7285 152.074 33.1543 149.496C29.6094 146.889 26.8262 143.622 24.8047 139.696C22.7832 135.771 21.7725 131.156 21.7725 125.854C21.7725 122.309 22.2412 119.086 23.1787 116.186C24.1162 113.256 25.4346 110.634 27.1338 108.319C28.8623 105.976 30.9277 103.939 33.3301 102.211C35.7617 100.482 38.4424 99.0615 41.3721 97.9482C44.3311 96.8057 47.5098 95.9561 50.9082 95.3994C54.3066 94.8135 57.8516 94.5205 61.543 94.5205ZM165.869 156L113.398 102.826V156H107.905V95.6191H113.97L166.44 148.969V95.6191H171.846V156H165.869ZM192.192 156V95.6191H197.686V156H192.192ZM242.51 100.629V156H237.061V100.629H209.595V95.6191H269.976V100.629H242.51ZM281.841 156V95.6191H332.158V100.761H287.817V121.547H329.917V126.645H287.817V150.858H332.817V156H281.841Z" fill="white"/>
<path d="M445.537 57.21C443.428 58.0889 441.333 58.8945 439.253 59.627C437.202 60.3594 435.063 60.9893 432.837 61.5166C430.61 62.0439 428.267 62.4541 425.806 62.7471C423.345 63.04 420.664 63.1865 417.764 63.1865C414.189 63.1865 410.747 62.8936 407.437 62.3076C404.155 61.7217 401.094 60.8428 398.252 59.6709C395.41 58.499 392.832 57.0488 390.518 55.3203C388.203 53.5625 386.211 51.5264 384.541 49.2119C382.9 46.8975 381.626 44.29 380.718 41.3896C379.839 38.4893 379.399 35.3105 379.399 31.8535C379.399 28.3965 379.839 25.2178 380.718 22.3174C381.626 19.417 382.9 16.8096 384.541 14.4951C386.211 12.1807 388.203 10.1592 390.518 8.43066C392.832 6.67285 395.41 5.20801 398.252 4.03613C401.094 2.86426 404.155 1.98535 407.437 1.39941C410.718 0.813477 414.16 0.520508 417.764 0.520508C420.664 0.520508 423.345 0.666992 425.806 0.959961C428.267 1.25293 430.61 1.66309 432.837 2.19043C435.063 2.71777 437.202 3.34766 439.253 4.08008C441.333 4.7832 443.428 5.57422 445.537 6.45312V13.0449C443.867 11.9902 442.08 10.9941 440.176 10.0566C438.271 9.11914 436.206 8.29883 433.979 7.5957C431.782 6.89258 429.424 6.33594 426.904 5.92578C424.385 5.51563 421.689 5.31055 418.818 5.31055C413.018 5.31055 407.993 5.94043 403.745 7.2002C399.497 8.45996 395.981 10.2471 393.198 12.5615C390.444 14.8467 388.394 17.6299 387.046 20.9111C385.728 24.1631 385.068 27.8105 385.068 31.8535C385.068 35.8965 385.728 39.5439 387.046 42.7959C388.394 46.0479 390.444 48.8311 393.198 51.1455C395.981 53.4307 399.497 55.2031 403.745 56.4629C407.993 57.6934 413.018 58.3086 418.818 58.3086C421.689 58.3086 424.399 58.1035 426.948 57.6934C429.526 57.2832 431.929 56.7266 434.155 56.0234C436.411 55.3203 438.477 54.5146 440.352 53.6064C442.256 52.6689 443.984 51.6875 445.537 50.6621V57.21ZM467.334 36.1602V62H461.841V1.61914H491.899C496.499 1.61914 500.439 1.98535 503.721 2.71777C507.002 3.4209 509.683 4.50488 511.763 5.96973C513.872 7.40527 515.41 9.20703 516.377 11.375C517.344 13.543 517.827 16.0771 517.827 18.9775C517.827 23.4893 516.641 27.1074 514.268 29.832C511.895 32.5273 508.071 34.373 502.798 35.3691L523.408 62H516.509L497.041 35.9844C496.221 36.043 495.386 36.0869 494.536 36.1162C493.687 36.1455 492.808 36.1602 491.899 36.1602H467.334ZM512.158 18.9775C512.158 16.3994 511.704 14.3193 510.796 12.7373C509.888 11.126 508.408 9.88086 506.357 9.00195C504.307 8.12305 501.611 7.53711 498.271 7.24414C494.961 6.92188 490.889 6.76074 486.055 6.76074H467.334V31.0186H485.879C490.713 31.0186 494.8 30.8867 498.14 30.623C501.479 30.3301 504.189 29.7588 506.27 28.9092C508.35 28.0303 509.844 26.8145 510.752 25.2617C511.689 23.6797 512.158 21.585 512.158 18.9775ZM536.812 62V1.61914H587.129V6.76074H542.788V27.5469H584.888V32.6445H542.788V56.8584H587.788V62H536.812ZM660.034 62L651.729 46.0918H610.728L602.422 62H596.401L627.998 1.61914H634.458L666.055 62H660.034ZM631.25 6.93652L613.408 41.0381H649.048L631.25 6.93652ZM693.389 6.62891V62H687.939V6.62891H660.474V1.61914H720.854V6.62891H693.389ZM732.72 62V1.61914H738.213V62H732.72ZM789.189 62H780.972L750.825 1.61914H756.978L785.234 58.2207L813.491 1.61914H819.6L789.189 62ZM832.212 62V1.61914H837.705V62H832.212ZM882.529 6.62891V62H877.08V6.62891H849.614V1.61914H909.995V6.62891H882.529ZM948.799 36.4238V62H943.306V36.4238L914.961 1.61914H921.509L946.074 31.8535L970.552 1.61914H977.144L948.799 36.4238Z" fill="url(#paint0_linear_7_2535)"/>
<path d="M383.618 156V95.6191H389.111V156H383.618ZM467.422 156L414.951 102.826V156H409.458V95.6191H415.522L467.993 148.969V95.6191H473.398V156H467.422ZM551.709 156L499.238 102.826V156H493.745V95.6191H499.81L552.28 148.969V95.6191H557.686V156H551.709ZM650.498 125.854C650.498 131.273 649.517 135.961 647.554 139.916C645.591 143.842 642.896 147.094 639.468 149.672C636.04 152.221 631.997 154.11 627.339 155.341C622.681 156.571 617.656 157.187 612.266 157.187C606.846 157.187 601.792 156.571 597.104 155.341C592.417 154.11 588.345 152.221 584.888 149.672C581.431 147.094 578.721 143.842 576.758 139.916C574.795 135.961 573.813 131.273 573.813 125.854C573.813 122.25 574.268 118.983 575.176 116.054C576.084 113.095 577.358 110.458 578.999 108.144C580.64 105.8 582.617 103.778 584.932 102.079C587.275 100.38 589.868 98.9736 592.71 97.8604C595.581 96.7178 598.657 95.8828 601.938 95.3555C605.22 94.7988 608.662 94.5205 612.266 94.5205C617.656 94.5205 622.681 95.1357 627.339 96.3662C631.997 97.5967 636.04 99.501 639.468 102.079C642.896 104.628 645.591 107.88 647.554 111.835C649.517 115.761 650.498 120.434 650.498 125.854ZM644.829 125.854C644.829 121.576 644.126 117.797 642.72 114.516C641.343 111.234 639.292 108.48 636.567 106.254C633.843 103.998 630.444 102.299 626.372 101.156C622.329 99.9844 617.627 99.3984 612.266 99.3984C606.904 99.3984 602.173 99.9844 598.071 101.156C593.999 102.328 590.586 104.042 587.832 106.298C585.078 108.524 582.998 111.293 581.592 114.604C580.186 117.885 579.482 121.635 579.482 125.854C579.482 130.131 580.186 133.91 581.592 137.191C582.998 140.473 585.078 143.241 587.832 145.497C590.586 147.724 593.999 149.423 598.071 150.595C602.173 151.737 606.904 152.309 612.266 152.309C617.627 152.309 622.329 151.737 626.372 150.595C630.444 149.423 633.843 147.724 636.567 145.497C639.292 143.241 641.343 140.473 642.72 137.191C644.126 133.91 644.829 130.131 644.829 125.854ZM696.377 156H688.159L658.013 95.6191H664.165L692.422 152.221L720.679 95.6191H726.787L696.377 156ZM789.233 156L780.928 140.092H739.927L731.621 156H725.601L757.197 95.6191H763.657L795.254 156H789.233ZM760.449 100.937L742.607 135.038H778.247L760.449 100.937ZM822.588 100.629V156H817.139V100.629H789.673V95.6191H850.054V100.629H822.588ZM861.919 156V95.6191H867.412V156H861.919ZM960.225 125.854C960.225 131.273 959.243 135.961 957.28 139.916C955.317 143.842 952.622 147.094 949.194 149.672C945.767 152.221 941.724 154.11 937.065 155.341C932.407 156.571 927.383 157.187 921.992 157.187C916.572 157.187 911.519 156.571 906.831 155.341C902.144 154.11 898.071 152.221 894.614 149.672C891.157 147.094 888.447 143.842 886.484 139.916C884.521 135.961 883.54 131.273 883.54 125.854C883.54 122.25 883.994 118.983 884.902 116.054C885.811 113.095 887.085 110.458 888.726 108.144C890.366 105.8 892.344 103.778 894.658 102.079C897.002 100.38 899.595 98.9736 902.437 97.8604C905.308 96.7178 908.384 95.8828 911.665 95.3555C914.946 94.7988 918.389 94.5205 921.992 94.5205C927.383 94.5205 932.407 95.1357 937.065 96.3662C941.724 97.5967 945.767 99.501 949.194 102.079C952.622 104.628 955.317 107.88 957.28 111.835C959.243 115.761 960.225 120.434 960.225 125.854ZM954.556 125.854C954.556 121.576 953.853 117.797 952.446 114.516C951.069 111.234 949.019 108.48 946.294 106.254C943.569 103.998 940.171 102.299 936.099 101.156C932.056 99.9844 927.354 99.3984 921.992 99.3984C916.631 99.3984 911.899 99.9844 907.798 101.156C903.726 102.328 900.312 104.042 897.559 106.298C894.805 108.524 892.725 111.293 891.318 114.604C889.912 117.885 889.209 121.635 889.209 125.854C889.209 130.131 889.912 133.91 891.318 137.191C892.725 140.473 894.805 143.241 897.559 145.497C900.312 147.724 903.726 149.423 907.798 150.595C911.899 151.737 916.631 152.309 921.992 152.309C927.354 152.309 932.056 151.737 936.099 150.595C940.171 149.423 943.569 147.724 946.294 145.497C949.019 143.241 951.069 140.473 952.446 137.191C953.853 133.91 954.556 130.131 954.556 125.854ZM1034.32 156L981.846 102.826V156H976.353V95.6191H982.417L1034.89 148.969V95.6191H1040.29V156H1034.32ZM1064.73 139.784H1061.04L1059.5 105.155V95.6191H1066.22V105.155L1064.73 139.784ZM1059.5 156V147.343H1066.22V156H1059.5Z" fill="url(#paint1_linear_7_2535)"/>
<defs>
<linearGradient id="paint0_linear_7_2535" x1="-10" y1="84" x2="1076" y2="84" gradientUnits="userSpaceOnUse">
<stop offset="0.45" stop-color="white"/>
<stop offset="1" stop-color="#DE6F00"/>
</linearGradient>
<linearGradient id="paint1_linear_7_2535" x1="420.061" y1="84" x2="1076" y2="84" gradientUnits="userSpaceOnUse">
<stop stop-color="white"/>
<stop offset="1" stop-color="#E99700"/>
</linearGradient>
</defs>
</svg>
